<svg xmlns="http://www.w3.org/2000/svg" xmlns:xlink="http://www.w3.org/1999/xlink" viewBox="0 0 1083.75 551.25">
  <g id="laces"  class="g_to_interact" style="isolation: isolate">
    <path d="M579.75,168c-8.63.33-18-2-21.75-6.75,3.12-10.36,2.33-25.83,12-29.25,6.29-2.23,10.39-.68,15-3.75,5.74-3.81,6.27-9,15.75-9.75,12.18,5.91,20.16,14.64,30,22.5-2.34,5.32.54,16.06.75,25.5h-2.25c-6.71,2.12-14.06.55-17.25-3.75-5.61-3.36-2.22-10.67-4.5-17.25-9.87,5.64-15.49,12.85-27.75,16.5Z" fill="white" fill-rule="evenodd"/>
    <path d="M633,171c23.76-2.36,41.75.13,51,17.25V189l-21,1.5c-2.62-1-4.27-3.92-9-3-9,1.74-20,9.6-32.25,5.25v-6c2.8-4.14,7.52-6.61,11.25-9.75Z" fill="white" fill-rule="evenodd"/>
    <path d="M551,204.62c8,2.5,17.76,6.63,25.76,9.13L594,220.5c.21,5.56.5,11,.87,16.52s.83,10.95,1.38,16.48c2.55-2.7,17.7-27.92,18-28.5l42,15c-9.14,15.75-18.07,31.38-27,47.25-9.15,16.26-18.07,32.37-27,48.75l-22.5-6-22.5-6-1.5-40.5-22.5,33.75c-.47-.18-44.66-10.27-44.89-10.38s9.33-13.7,13.39-19.62c7.57-11,12.57-22.32,19.78-33.6C531.64,237.82,541.6,220.9,551,204.62Z" fill="white" fill-rule="evenodd"/>
    <path d="M708,206.25c16.47,2.25,28.55,4.12,37.5,15.75-15.52.67-34.39,17.48-52.5,5.25l-.75-1.5c-.18-4.15,0-7.52,1.5-9.75C697.05,210.83,702.47,209.28,708,206.25Z" fill="white" fill-rule="evenodd"/>
    <path d="M556.5,222h0c.2.16-43.07,70.19-46.5,75.75l18,6,38.25-55.5c.35,5.89.66,11.71.93,17.61.78,17,1.21,33.61,1.32,50.64l27,6h0c-.11-.1,40.29-72.51,41.25-77.25,0-.18-.13-1,0-.75a.12.12,0,0,1,0,.08c0,.09-13.93-4-15.76-4.58l-30.75,51-1.5-.75-9-60Z" fill="white" fill-rule="evenodd"/>
    <path d="M774,225.75c7.6,1.79,12,4.95,16.5,9.75l-.75,7.5-5.25,6.75c-6,.77-9.61.86-12.75-3l-4.5-3.75V232.5C768.89,228.58,770.76,228,774,225.75Z" fill="white" fill-rule="evenodd"/>
  </g>
  <g id="badge"  class="g_to_interact" style="isolation: isolate">
    <path d="M519,99c8.79.79,72.31,15,76.5,18.75-2.75,5.5-14.31,16.33-24,14.25C563.31,130.25,521.18,106.07,519,99Z" fill="white" fill-rule="evenodd"/>
    <path d="M482.25,130.5l3.75.75,3,1.5c1.66,5.63,4,13.79,2.25,20.25H481.5c-.9-6.71-3.43-11.82-2.25-18.75Z" fill="white" fill-rule="evenodd"/>
    <path d="M456.75,143.25l4.5.75c.92,4.1,1.51,7.88.75,12a15.51,15.51,0,0,1-9,.75l-3-9,3.75-3Z" fill="white" fill-rule="evenodd"/>
    <path d="M633,144.75c10.88,3.89,12.94,19.23,25.5,21.75v3l-25.5.75-.75-2.25C629,161,630.23,147.37,633,144.75Z" fill="white" fill-rule="evenodd"/>
    <path d="M212.74,145.82c24,9.81,29.08,41.88,58.76,47.68,22.32,4.36,75.79-1.29,88.09-8.15,3.25-3.75,19.55-8.4,21.68-5.25,0,0,8.89,12.4.48,17.9-16.73,10.94-38.6,11.66-60,18.36-16.5,5.5-36.77,9.89-53.27,15.39L240,247.5c-12.86,3.77-59-8.94-66-13.5-7.77-5-14.18-16.12-20.25-23.25-6.25-7.34-17-24.84-9-38.25C158.6,149.27,210.42,144.87,212.74,145.82Z" fill="white" fill-rule="evenodd"/>
    <path d="M606.75,145.5H609l-.75,15-2.25.75h-6c-2.68-2.06-3.42-2.85-3.75-7.5C599.41,150.37,603.21,148.52,606.75,145.5Z" fill="white" fill-rule="evenodd"/>
    <path d="M457.5,207c37.72-1.1,48.35,44.41,18,59.25-19.56,9.56-108.56,19.44-92.25-18.75C390.29,232.22,440.88,216.76,457.5,207Z" fill="white" fill-rule="evenodd"/>
    <path d="M87,213.75c10.93.83,42.8,34.36,36.75,48.75-4.48,10.41-33.52,13.7-47.25,11.25l-.75-2.25C72.63,263.88,83.75,220.93,87,213.75Z" fill="white" fill-rule="evenodd"/>
    <path d="M585,225l3.75,63h3.75c0-.08,29.32-49.41,29.5-49.74-1.57-.36,19.78,6.24,19.78,6.24-7,12.75-15.28,27.75-22.28,40.5l-24,37.5-27-6-3-64.5c-6,8.21-11.6,16.33-17.25,24.75C541.74,286.45,535.6,296,529.5,306l-21-6.75c-.58.88-2.74,4.18-2.82,4.13-.38-.23,47.88-77.56,53.07-85.88H558Z" fill="white" fill-rule="evenodd"/>
    <path d="M829.5,265.5c43.49,5.85,103,10,147,19.5,7.91,1.7,16.55-1.29,22.5.75l3.75,2.25.75,3.75L999,297c-47.69.81-101.31-.67-138-12.75C849.39,280.43,831.65,278.61,829.5,265.5Z" fill="white" fill-rule="evenodd"/>
    <path d="M748.5,267c12.87,1,40.3,4.34,45.75,13.5,9,16.06-3.55,25.82-14.25,33-29.9,20.06-94.39,22.43-125.25,1.5-2.46-9.33-2.87-17.88,2.25-24.75l12-10.5c14-6.29,33.74-6.19,46.5-9.75C727,266.79,740.16,272.11,748.5,267Z" fill="white" fill-rule="evenodd"/>
    <path d="M862.5,315c19.13-.51,44.67-2.12,53.25,8.25l-.75,3c-22.81,10.87-55.62,9.92-81,17.25-10.18,2.94-13.67,10.9-28.5,8.25-5-4.39-2.75-9.61.75-13.5,9.93-11,22.22-18.25,39.75-21.75C852,315.3,858.2,317,862.5,315Z" fill="white" fill-rule="evenodd"/>
  </g>
  <g id="main_details" class="g_to_interact"  style="isolation: isolate">
    <path d="M424.5,3c11.08-.09,15,4.88,22.5,8.25,19.77,8.88,37.77,16.27,54,28.5l14.25,16.5,26.25,18L567.75,96c24.57,12.89,54.77,19.46,66,45.75l-1.5.75L630,140.25l-23.25-18c-7.81-4.34-84.38-26.47-95.25-24.75,7.18,18.16,60.08,23.12,57,41.25L564,141c-7.14-5.38-36.49-18.88-45-21.75.39.41,3.28-5.44-21-18.75a52.25,52.25,0,0,0-28.5-6.75C447.84,95.13,427,111.54,417,138c-2.69,3.38-5.4,6.58-8.25,9.75-4.56,5.07-8.88,8.8-9.63,12.08-2.9,12.75,22.47,29.63,47.13,42.67l5.25,4.5-.75,2.25c-21.37,11.93-51.92,20.15-68.25,37.5-.33,19.67,9.78,18.64,16.5,30,0,.25-26.4,4.49-39,.75l-6.75-4.5c-8.13-1.81-22.35,3.81-33,1.5l-30-10.5c-19-4.49-39.54.89-48-15.75,17.31-22.37,69.81-28.21,101.25-37.5,16.06-4.75,29.06-4.12,39-14.25.44-6.9.77-13.25-3-15.75-8-3.53-32.82,13.48-47,16.1-8.14,1.49-20.09,2.43-25.75,1.15-19.34-4.36-33.4-1.28-51.75-6-20-5.14-28.8-30.14-38.25-46.5-25.11-.1-59.56,9.46-70.5,24.75-2,6-3,18.41-4.34,24.69-.67,3.09-4.13-7-6.91-8.94-7.25-14.6-18.36-20-36.75-30-7.07-3.84,19.5-42.75,19.5-42.75,7.13-6,73.73-22.72,87-16.5,21.54,10.1,19.58,50.3,34.5,67.5,10.95,12.63,22.5,16.06,42.75,20.25,9.21,1.9,37.91,7.12,48,4.5,20.53-5.33,51.92-39.11,61.5-56.25C371.35,88.45,397.48,27.29,424.5,3Z" fill="white" fill-rule="evenodd"/>
    <path d="M802.5,354c-11.75.07-17.24,2.85-25.5,4.5l-32.25,3a79,79,0,0,1-16.25,1.2,75.57,75.57,0,0,1-15.25-1.95c-11.47-2.73-20.5-7.88-20.35-8.23,0,0,.05,0,.1,0-9.36-3.27-24.8-16.77-31.5-24,0,9.36-7.11-17.65-4.5-11.25,1.13-1.95,21,9,39,12.75,42.89,8.91,92.16-7.4,101.25-33,2.52-7.09-2.27-11.6-1.5-18l2.25-.75c36.2-11.57,59,7.38,94.5,14.25,32.54,6.29,69.29,1.83,98.25,6-2.15-1.61-3.23-.18-1.5-2.25,3.41,1.05,3.86.89,7.5-.75l.75,1.5v.75c-10.21,12-60.35,26.85-83.25,27.75A121.49,121.49,0,0,0,870,315c-29.07-1.2-54.29,3.94-63.64,20.9A34,34,0,0,0,802.5,354Z" fill="white" fill-rule="evenodd"/>
    <path d="M663,190.5c7.76,0-6.65,17.34-2.25,28.5,2.16,5.47,6.51,9.93,12.75,13.5l10.5,12h.75c-10.37-3.05-17-7.86-26.64-12.8s-32.5-14.8-32.5-14.8c-9-3.22-16.09-7.81-24.11-9.9a143.38,143.38,0,0,1-21.75-7.5c-2.56-1.17-6.46-1.14-7.5-3.75-2.49-6.22,0-6,0-6,4.73,1.29,7.59.62,12.94-.5,7.31-1.53,11.56-6,13-9.26,2.76-6,5.33-16.46-12.7-20.24,2.56.54,6.56-6.23,9.21-4.63,3.94,2.38,1.5,4.51,13.5,5.38,4.5.33,7.59,4.46,10.09,5.22,3.49,1.07,10.69.12,13.16,3,.83,1,1.6,4,.75,8.25-1.24,6.2-3,17.44-9.75,16.5,15.88,2.2,23.87-5.38,31.5-6C660.13,187,661.1,190.51,663,190.5Z" fill="white" fill-rule="evenodd"/>
  </g>
  <g id="main"  class="g_to_interact" style="isolation: isolate">
    <path d="M551,204.62c-12.26,20-56,91.56-62.63,102.25l44,11.79,23.39-35.16s.75,29,1.5,40.5l42.94,12c17.74-30.5,38.31-65.5,56.06-96l-39-12.75c-8.57,6.13-21.49,28.66-21.49,28.66-1-10.5-.76-24.91-1.76-35.41C580.75,216,551,204.62,551,204.62Z" fill="white" fill-rule="evenodd"/>
    <path d="M567,141.75l1.5,2.25Z" fill="white" fill-rule="evenodd"/>
    <path d="M471,90c30.77,1.77,46.53,26.23,67.5,39,6.73,4.1,22,5.57,26.25,12l.75,3c-3.2,2.72-5.42,4.25-7.5,8.25,1.26,3.9,1.89,6.39,5.25,8.25,8.41,7.48,22.85-3.72,29.25,1.5,4.71,1.92,10.06,9.38,6.75,16.5-4.19,10.4-14.66,16.7-25.87,14a4.64,4.64,0,0,0-1.13,4c18.19,6.34,37.4,13.72,57.39,22.33,19.49,8.39,37.62,17,54.36,25.67v-.75c-4.19-2.28-31.49-17.6-30.9-39a25.17,25.17,0,0,1,.9-6c3.15-6.61,18.69-14.41,28.5-10.5l25.5,18c-5-.45-7,1.48-12.74,5.89-4,5.84-1.72,12.29-1.51,12.86l5.25,6c7.56-.21,26.17-2.57,22.67-.62,14.8-8.38,21.89-11.77,32.83-6.88,4.33,1.94,15.68,3.34,15.68,3.34-8.71,17.66,6,21.21,8.69,21.51C789,250.7,789.75,243,790.5,238c9.74,4.68,32.16,19.11,37.5,28.29l-.75,3.75c-15.42,6.89-52,5.64-69.75-.75-3-2.25-12.49,0-15.49-2.25-2.24-.63-15,2-20.51,3-28.24,5.33-58.21,3.47-68.25,26.25-6.18,22.82,24,47,36.75,54.75,2.63,1.6,7.82,3.54,12.2,5.21,3.68,1.41,7.32,2.65,11,3.79,6,1.84,30.27,1.56,33.75.75l30-2.25c7.08-1.47,18.62-4.89,26.25-6.75,18.23-2.36,84-21.6,72.75-15.75,36.47-10.59,72.68-14.83,106.5-27,10.19-3.67,18.6-17,27.75-22.5,28,4,53.3,19.37,59.25,45,4.14,17.84-1,34.58-3,49.5-8.52,1.09-14.26,6.49-21,9L1002,400.5l-114,18c-16.5,0-32.24,3.45-48.74,3.45-28.11,6.16-61.69,6.59-99,6.61-21,1-42.77-.56-63.77.44-9.29,0-34.47.81-41.25,0-24-2.85-56.49-6.62-81.75-12L429,385.5l-75-9c-23.51-4.37-59.79,3.5-85.5-1.5H243c-35.31-10.43-75.06-24.93-111-36.75-15-4.92-64.16-17.34-69.75-28.5,3.62-12.07,1.33-30.76,12-36,16.08,4.55,42.94-3,50.25-11.25.13-19-14.36-33.7-24.75-42.75-4.08-3.56-11.93-4.5-15-9-4.91-17.44,9.37-39.62,11.25-54l2.25-.75c32.8,10.65,49,55.07,75,75.75C183.12,239.6,204,243,217.5,246l21,1.5,21,11.25c8.8,1.55,17.41,3.27,26.25,5.25,4.17.93,8.45,1.95,12.75,3,25.28,6.2,65.7,9.06,100.5,10.5,0-.25,1.39-.56,6.75,0,23.8-9.51,98.87,1.32,89.25-43.5-2.29-10.66-19.23-26.56-28.5-30h-12c-9.37-1.8-17.82-3.76-25.5-7.5-11.7-5.7-21-19.56-30-28.5-.58-16.3,10.05-20.28,18.75-30.75l7.5-15.75C435.94,104.7,453.2,100.16,471,90Z" fill="white" fill-rule="evenodd"/>
  </g>
  <g id="sole_details"  class="g_to_interact" style="isolation: isolate">
    <path d="M852,421.5c-.37,8.77-2.61,17-7.5,24-22.2,31.76-94.17,10.07-129,21-2.4.75-25.31,3.32-44.25,7.5-1.59.35-10.46-10.06-12-10.5-9.45-2.73-9.73-1.34-13.5-5.25A39,39,0,0,1,635.25,435l-3-7.5c19.35.93,38.29,1.42,57.75,1.5,27.88.11,62.86-.74,96-3Z" fill="white" fill-rule="evenodd"/>
    <path d="M25.5,419.25c7.87,2.56,15.48,5.21,23.24,8.09,12,4.46,23.58,9.2,35.26,14.41a466.21,466.21,0,0,0,64.5,21.75A466,466,0,0,0,231,477a103.78,103.78,0,0,1,33-2.25c2,.19,4,.44,6,.75a164,164,0,0,1,32.5,12.32,196.29,196.29,0,0,1,28.25,17.68l.75,10.5c-14.45,5.24-50.72-1.34-68.25-1.5-64-.6-122.64-6.29-177.75-18C67.9,492.76,25,489.72,18.75,477,13.67,464.88,22.63,426.71,25.5,419.25Z" fill="white" fill-rule="evenodd"/>
    <path d="M62.25,309.75c7,4.3,63.32,27.16,96.75,38.25,11,3.66,40,10.17,46.5,13.5,9.91,5.07,30.27,4.35,35.25,14.25-2.4,10.49,6.87,24.16-1.5,31.5L235.5,411c-3-.21-6-.46-9-.75-44.9-4.36-81.46-15.7-111-31.5a207.36,207.36,0,0,0-19.75-9.68C79.39,362.2,64.1,356.2,50.43,350.33,46.79,348.77,62.25,309.75,62.25,309.75Z" fill="white" fill-rule="evenodd"/>
  </g>
  <g id="sole" class="g_to_interact"  style="isolation: isolate">
    <path d="M566.25,526.5l-52.5.75c-9.72-2.27-16.7-9.22-24-12.75-22.17-10.71-60.39-8.21-89.25-7.5-7.09,30.76-56.6,30-95.25,30-46.29,0-89.66-2.86-123.75-10.5L165.75,528c-27.09-5.59-50-5-75.75-10.5-23-4.9-71-8.09-78-26.25,1.12-3,1.55-4.18,3.75-6,1.28-2,3.34-4.89,6.75-4.5,5.51.63,14.38,6.41,21,8.25l51,9c44.73,9.46,122.1,21.15,177.75,15,17.56-1.94,41.63,9.22,59.25,3-.5-20.66-24.89-23.83-39-30.75L270,475.5c-21.83-4.94-41.38,4.65-63.75,0-42.82-8.9-82.08-18.66-119.25-32.25-9.6-3.51-59.7-24.42-62.25-24,1.13-5,1.85-13.25,3-19.5,5-3.49,10.07-6.89,14.25-11.25-.65-17.66-6.34-31.89,8.25-40.5,29.85,14.3,62,27.89,93,41.25l29.25,7.5c12.72,5.28,48.43,16.29,63.75,13.5l6-7.5c2.38-8.89-2-17.3-2.25-27.75,64.86-.67,134.44-1.84,189.75,10.5,40.27,9,82.59,22.82,123.75,31.5l52.5,9,27,.75c7.87,6.49,4,19.69,9.75,28.5,5.52,8.45,12.62,4.45,18.75,8.25l6.75,9L714,465.75c25.45-4.81,53.24-1.59,76.5-6,15-2.83,31.17.85,42.75-5.25,15.5-8.16,12.36-21.05,21-32.25,7.57-7.62,32.91-2.64,45-5.25,40-8.63,84.64-13.81,123-22.5,14.38-3.26,37.18-4.78,43.5-15.75,4.47-13.08,4.5-24.88,4.5-40.5h3c17.71,21.82,6,62.71-9.75,79.5l-16.5,9c-8.49,9.61-11.38,21.45-27.75,23.25l-6.75-4.5c-5.65,3.7-6.82,8.73-11.25,13.5-3.3,3.55-37.24,16.62-43.5,14.25L951,468c-7.71,4.91-12.71,13.32-21.75,17.25L876,499.5H861.75c-16.93,4.45-40,10.78-59.25,15-10.55,2.31-21.29-1.86-30.75,0-20,3.92-55.67,10.54-77.25,6-10.94-2.3-21.83,3-30,4.5l-26.25-1.5c-9.09,1.9-31.66,5.68-40.5,2.25-.28-3.23-2.84-5.47-5.38-5.38A5.29,5.29,0,0,0,588,523.5a27.68,27.68,0,0,1-6,.75C580,524.45,566.23,526,566.25,526.5Z" fill="white" fill-rule="evenodd"/>
  </g>
  <g id="shadow_Image" data-name="shadow Image">
    <image id="shadow_Image-2" data-name="shadow Image" width="1445" height="735" transform="scale(0.75)" xlink:href="new_balance_9921.png"/>
  </g>
</svg>
